{
  "accessors": [
    {
      "bufferView": 0,
      "componentType": 5125,
      "count": 67056,
      "type": "SCALAR"
    },
    {
      "bufferView": 1,
      "componentType": 5126,
      "count": 14799,
      "max": [
        0.16276782182666683,
        0.0457201882320159,
        0.026380631135894308
      ],
      "min": [
        -0.16276782182666705,
        -0.0457201882320159,
        -0.026380631135894308
      ],
      "type": "VEC3"
    },
    {
      "bufferView": 2,
      "componentType": 5126,
      "count": 14799,
      "max": [
        0.9999991914749523,
        0.9999999999986771,
        1.0
      ],
      "min": [
        -0.9999991851948937,
        -0.9999999976790078,
        -1.0
      ],
      "type": "VEC3"
    },
    {
      "bufferView": 3,
      "componentType": 5126,
      "count": 14799,
      "max": [
        1.0,
        0.9573088911793338
      ],
      "min": [
        0.0,
        0.0
      ],
      "type": "VEC2"
    }
  ],
  "asset": {
    "generator": "Adobe Illustrator",
    "version": "2.0"
  },
  "bufferViews": [
    {
      "buffer": 0,
      "byteLength": 268224,
      "target": 34963
    },
    {
      "buffer": 0,
      "byteLength": 177588,
      "byteOffset": 268224,
      "target": 34962
    },
    {
      "buffer": 0,
      "byteLength": 177588,
      "byteOffset": 445812,
      "target": 34962
    },
    {
      "buffer": 0,
      "byteLength": 118392,
      "byteOffset": 623400,
      "target": 34962
    }
  ],
  "buffers": [
    {
      "byteLength": 741792,
      "uri": "data:application/octet-stream;base64,"
    }
  ],
  "materials": [
    {
      "doubleSided": true,
      "pbrMetallicRoughness": {
        "baseColorFactor": [
          0.0507812425494194,
          0.55078125,
          0.9882811903953552,
          1.0
        ],
        "metallicFactor": 0.0,
        "roughnessFactor": 0.4000000059604645
      }
    }
  ],
  "meshes": [
    {
      "primitives": [
        {
          "attributes": {
            "NORMAL": 2,
            "POSITION": 1,
            "TEXCOORD_0": 3
          },
          "indices": 0,
          "material": 0,
          "mode": 4
        }
      ]
    }
  ],
  "nodes": [
    {
      "mesh": 0
    }
  ],
  "scenes": [
    {
      "nodes": [
        0
      ]
    }
  ]
}
